<svg xmlns="http://www.w3.org/2000/svg" width="1600" height="1100" viewBox="0 0 1600 1100" role="img" aria-labelledby="title desc">
  <title id="title">暖色可爱猫墙渲染图</title>
  <desc id="desc">暖色调、可爱风格的猫墙效果图，包含木质平台、圆润猫窝、猫屋、剑麻柱、吊床、绳桥和软垫。</desc>
  <defs>
    <linearGradient id="wallGlow" x1="0" y1="0" x2="1" y2="1">
      <stop offset="0" stop-color="#fff6e8"/>
      <stop offset=".58" stop-color="#fffaf3"/>
      <stop offset="1" stop-color="#ffe9dc"/>
    </linearGradient>
    <linearGradient id="floor" x1="0" y1="0" x2="0" y2="1">
      <stop offset="0" stop-color="#efd3ad"/>
      <stop offset="1" stop-color="#c99662"/>
    </linearGradient>
    <linearGradient id="wood" x1="0" y1="0" x2="1" y2="1">
      <stop offset="0" stop-color="#f6c987"/>
      <stop offset=".55" stop-color="#dda35d"/>
      <stop offset="1" stop-color="#b9773d"/>
    </linearGradient>
    <linearGradient id="pink" x1="0" y1="0" x2="1" y2="1">
      <stop offset="0" stop-color="#ffe4df"/>
      <stop offset="1" stop-color="#f4a99c"/>
    </linearGradient>
    <pattern id="grain" patternUnits="userSpaceOnUse" width="100" height="26">
      <path d="M0 13 C20 4 36 22 58 12 C75 5 86 10 100 15" stroke="#9b612f" stroke-width="1.5" opacity=".22" fill="none"/>
      <path d="M0 23 C30 15 48 28 77 20 C87 17 94 20 100 22" stroke="#fff0d8" stroke-width="1.2" opacity=".35" fill="none"/>
    </pattern>
    <filter id="shadow" x="-20%" y="-20%" width="140%" height="160%">
      <feDropShadow dx="0" dy="12" stdDeviation="12" flood-color="#8b5a32" flood-opacity=".22"/>
    </filter>
    <filter id="softShadow" x="-30%" y="-30%" width="160%" height="180%">
      <feDropShadow dx="0" dy="8" stdDeviation="8" flood-color="#8b5a32" flood-opacity=".15"/>
    </filter>
    <style>
      .label { font-family: "Microsoft YaHei", "Noto Sans SC", Arial, sans-serif; fill: #51392d; font-size: 28px; font-weight: 800; }
      .small { font-family: "Microsoft YaHei", "Noto Sans SC", Arial, sans-serif; fill: #6e4e3d; font-size: 18px; }
      .wall { fill: url(#wallGlow); }
      .wood { fill: url(#wood); stroke: #8a5a35; stroke-width: 2; }
      .woodgrain { fill: url(#grain); opacity: .75; }
      .cushion { fill: url(#pink); stroke: #b87568; stroke-width: 2; }
      .sisal { fill: #c89255; stroke: #7a5234; stroke-width: 2; }
      .rope { stroke: #b77a43; stroke-width: 7; stroke-linecap: round; }
      .cream { fill: #fff8ed; stroke: #8a5a35; stroke-width: 2; }
    </style>
  </defs>

  <rect width="1600" height="1100" fill="#fff3e6"/>
  <rect x="98" y="96" width="1404" height="838" rx="36" class="wall"/>
  <rect x="98" y="852" width="1404" height="180" fill="url(#floor)"/>
  <path d="M98 852 H1502" stroke="#b98555" stroke-width="4"/>

  <text x="132" y="160" class="label">暖色可爱猫墙效果图</text>
  <text x="134" y="194" class="small">奶油墙面、浅木色平台、珊瑚粉软垫；适合客厅、阳台封窗区或猫房主墙。</text>

  <g opacity=".18">
    <circle cx="1350" cy="205" r="18" fill="#f0a08f"/>
    <circle cx="1392" cy="266" r="10" fill="#e4b06d"/>
    <circle cx="1262" cy="306" r="13" fill="#f0a08f"/>
    <circle cx="251" cy="245" r="12" fill="#e4b06d"/>
    <path d="M210 730 c12 -30 52 -30 64 0 c12 30 -20 54 -32 70 c-12 -16 -44 -40 -32 -70z" fill="#f0a08f"/>
    <path d="M1320 711 c11 -25 44 -25 55 0 c11 25 -17 45 -28 59 c-10 -14 -38 -34 -27 -59z" fill="#f0a08f"/>
  </g>

  <rect x="184" y="232" width="1230" height="18" rx="9" fill="#d19b62" opacity=".42"/>
  <rect x="184" y="815" width="1230" height="18" rx="9" fill="#d19b62" opacity=".28"/>

  <g filter="url(#shadow)">
    <rect x="310" y="230" width="295" height="154" rx="76" class="wood"/>
    <rect x="330" y="249" width="255" height="116" rx="58" class="woodgrain"/>
    <ellipse cx="458" cy="307" rx="106" ry="46" class="cushion"/>
    <ellipse cx="458" cy="303" rx="76" ry="26" fill="#fff1eb" opacity=".5"/>
    <path d="M422 299 c20 -28 78 -28 98 0 c13 18 4 37 -18 47 c-26 14 -62 12 -88 -2 c-19 -11 -21 -28 8 -45z" fill="#7a513a" opacity=".92"/>
    <circle cx="421" cy="288" r="20" fill="#7a513a"/>
    <circle cx="502" cy="288" r="20" fill="#7a513a"/>
    <circle cx="438" cy="294" r="4" fill="#fff5ec"/>
  </g>

  <g filter="url(#shadow)">
    <path d="M572 348 C705 302 924 302 1057 348 L1038 414 C895 386 734 386 591 414 Z" fill="#f0be7a" stroke="#8a5a35" stroke-width="2"/>
    <path d="M602 351 L1026 351 M622 382 L1006 382" class="rope"/>
    <path d="M640 329 V421 M704 316 V430 M768 310 V434 M832 308 V435 M896 310 V434 M960 318 V429" stroke="#8f5f37" stroke-width="5" stroke-linecap="round"/>
    <path d="M594 333 C725 292 907 292 1036 333" fill="none" stroke="#fff0ce" stroke-width="5" opacity=".65"/>
  </g>

  <g filter="url(#shadow)">
    <rect x="1092" y="315" width="248" height="145" rx="28" class="wood"/>
    <rect x="1117" y="331" width="198" height="88" rx="24" class="cushion"/>
    <path d="M1132 360 C1175 336 1252 335 1295 360" fill="none" stroke="#fff3ed" stroke-width="8" stroke-linecap="round" opacity=".65"/>
  </g>

  <g filter="url(#shadow)">
    <rect x="685" y="470" width="82" height="330" rx="35" class="sisal"/>
    <path d="M690 500 L762 464 M690 535 L762 499 M690 570 L762 534 M690 605 L762 569 M690 640 L762 604 M690 675 L762 639 M690 710 L762 674 M690 745 L762 709 M690 780 L762 744" stroke="#8a5a35" stroke-width="5" opacity=".5"/>
    <circle cx="726" cy="470" r="45" class="wood"/>
    <circle cx="726" cy="800" r="45" class="wood"/>
  </g>

  <g filter="url(#shadow)">
    <path d="M790 503 Q982 425 1174 503 L1135 626 Q982 694 829 626 Z" fill="#ffe0d6" stroke="#936253" stroke-width="2.5"/>
    <path d="M836 514 Q982 465 1128 514" fill="none" stroke="#c98877" stroke-width="8" stroke-dasharray="18 15"/>
    <circle cx="822" cy="508" r="12" fill="#fff8ed" stroke="#936253" stroke-width="2"/>
    <circle cx="1141" cy="508" r="12" fill="#fff8ed" stroke="#936253" stroke-width="2"/>
    <circle cx="860" cy="610" r="12" fill="#fff8ed" stroke="#936253" stroke-width="2"/>
    <circle cx="1104" cy="610" r="12" fill="#fff8ed" stroke="#936253" stroke-width="2"/>
  </g>

  <g filter="url(#shadow)">
    <rect x="1052" y="572" width="334" height="247" rx="30" class="wood"/>
    <rect x="1087" y="607" width="264" height="171" rx="78" class="cream"/>
    <circle cx="1172" cy="692" r="47" class="cushion"/>
    <circle cx="1269" cy="692" r="28" class="cushion"/>
    <circle cx="1160" cy="642" r="16" fill="#f7b1a1"/>
    <circle cx="1205" cy="628" r="16" fill="#f7b1a1"/>
    <circle cx="1248" cy="633" r="16" fill="#f7b1a1"/>
    <path d="M1172 704 q49 34 97 0" fill="none" stroke="#9b6557" stroke-width="6" stroke-linecap="round"/>
  </g>

  <g filter="url(#shadow)">
    <rect x="304" y="720" width="242" height="137" rx="18" class="wood"/>
    <rect x="325" y="736" width="198" height="45" rx="22" class="cushion" opacity=".85"/>
    <path d="M322 837 H528" stroke="#fff0d8" stroke-width="5" opacity=".55"/>
  </g>

  <g filter="url(#shadow)">
    <rect x="526" y="594" width="208" height="121" rx="18" class="wood"/>
    <path d="M548 674 H710" stroke="#fff0d8" stroke-width="5" opacity=".55"/>
  </g>

  <g filter="url(#shadow)">
    <rect x="222" y="413" width="186" height="364" rx="20" fill="#ffd7c9" stroke="#965f50" stroke-width="2"/>
    <path d="M255 455 H375 M255 496 H375 M255 537 H375 M255 578 H375 M255 619 H375 M255 660 H375 M255 701 H375" stroke="#b97861" stroke-width="10" stroke-linecap="round"/>
    <path d="M239 430 C277 404 356 403 392 430" fill="none" stroke="#fff3eb" stroke-width="7" opacity=".65"/>
  </g>

  <g filter="url(#softShadow)">
    <path d="M1372 542 q26 -36 52 0 q-26 52 -52 0z" fill="#f6a794"/>
    <path d="M247 342 q20 -28 40 0 q-20 40 -40 0z" fill="#f0bd7a"/>
    <circle cx="1160" cy="844" r="11" fill="#f6a794"/>
    <circle cx="1192" cy="859" r="8" fill="#f6a794"/>
    <circle cx="1223" cy="844" r="11" fill="#f6a794"/>
    <ellipse cx="1192" cy="883" rx="27" ry="19" fill="#f6a794"/>
  </g>

  <g opacity=".5">
    <path d="M220 882 H1380" stroke="#8d5b33" stroke-width="3"/>
    <path d="M260 910 H1324" stroke="#fff0d8" stroke-width="3"/>
  </g>
</svg>
